nColumns=19
nRows=34
DataType=double
version=3
OpenSimVersion=4.5
endheader
time	ground_force_1_vx	ground_force_1_vy	ground_force_1_vz	ground_force_1_px	ground_force_1_py	ground_force_1_pz	ground_moment_1_mx	ground_moment_1_my	ground_moment_1_mz	ground_force_2_vx	ground_force_2_vy	ground_force_2_vz	ground_force_2_px	ground_force_2_py	ground_force_2_pz	ground_moment_2_mx	ground_moment_2_my	ground_moment_2_mz
0.257	27.802116394043	546.859680175781	14.1033325195313	0.192022547073733	1.27309453695662e-17	0.140747919398495	0	-1.82289343515998	-1.1162003052777e-16	0	0	0	0	0	0	0	0	0
0.258	27.6369132995605	546.1708984375	14.1688985824585	0.191995431735059	1.27827095659441e-17	0.141259199751846	0	-1.82135156650458	-1.11525618302093e-16	0	0	0	0	0	0	0	0	0
0.259	27.8256378173828	545.135559082031	14.1224689483643	0.191951324140059	1.28153887667735e-17	0.142082161735553	0	-1.92787370657779	-1.18048218196042e-16	0	0	0	0	0	0	0	0	0
0.26	27.6599025726318	544.964477539062	14.0568475723267	0.192033710039551	1.28629857383098e-17	0.142661498035231	0	-1.89994468980492	-1.1633805914633e-16	0	0	0	0	0	0	0	0	0
0.261	27.2758255004883	544.790649414062	13.8191967010498	0.191940648993069	1.29019449348067e-17	0.143381899906557	-3.63797880709171e-15	-1.92309136318974	-1.17755384119912e-16	0	0	0	0	0	0	0	0	0
0.262	27.5253887176514	544.618469238281	13.7076225280762	0.192020531059927	1.29466858173696e-17	0.144007879678873	0	-1.97470991289483	-1.2091610870356e-16	0	0	0	0	0	0	0	0	0
0.263	27.3159847259521	545.051208496094	13.7102041244507	0.19216383094371	1.29925409683215e-17	0.144615662067425	-3.63797880709171e-15	-1.97961823146539	-1.21216656534892e-16	0	0	0	0	0	0	0	0	0
0.264	27.1296329498291	543.410034179688	13.5120534896851	0.19181462745979	1.303661293893e-17	0.145252566000974	0	-2.01342463753482	-3.76126550897579e-15	0	0	0	0	0	0	0	0	0
0.265	27.1198406219482	543.151000976562	13.6449432373047	0.191726517130297	1.30778779812816e-17	0.145935310551735	0	-2.08071608704919	-1.2740711479696e-16	0	0	0	0	0	0	0	0	0
0.266	26.9953632354736	543.065979003906	13.359769821167	0.191925653714936	1.31271868192479e-17	0.146486689951004	0	-2.09746303115277	-1.28432569371557e-16	0	0	0	0	0	0	0	0	0
0.267	26.8143157958984	541.857055664062	13.4919357299805	0.191607956080874	1.31602077964403e-17	0.147304070303122	0	-2.13717438275209	-1.30864188352853e-16	0	0	0	0	0	0	0	0	0
0.268	26.7565460205078	542.117431640625	13.5812902450562	0.191751707749095	1.32147054744697e-17	0.147770709513355	0	-2.18427313290654	-1.33748155033878e-16	0	0	0	0	0	0	0	0	0
0.269	26.4782810211182	541.682983398438	12.9691867828369	0.191592783133863	1.32558334487019e-17	0.148455692556381	0	-2.20253725764672	-1.34866510128992e-16	0	0	0	0	0	0	0	0	0
0.27	26.3155536651611	541.943359375	13.1470699310303	0.191691993166302	1.32969504685492e-17	0.149140854498089	0	-2.2339923386941	-1.36792578345072e-16	0	0	0	0	0	0	0	0	0
0.271	26.3244667053223	541.166870117188	13.124418258667	0.191600533209186	1.33489970107779e-17	0.14964752379377	0	-2.28684052077052	-1.40028596196104e-16	0	0	0	0	0	0	0	0	0
0.272	26.1168422698975	539.873291015625	12.9480466842652	0.191593330011385	1.33923906328594e-17	0.150295505999479	0	-2.36756891448133	-1.44971784644017e-16	0	0	0	0	0	0	0	0	0
0.273	25.9063987731934	540.391845703125	13.0613136291504	0.191656562290102	1.34445941412241e-17	0.150799611843624	0	-2.38241209191228	-1.45880667130516e-16	0	0	0	0	0	0	0	0	0
0.274	25.7887687683105	539.528442382812	13.040156364441	0.191547609887893	1.34794472663951e-17	0.151587070948573	0	-2.48698230631702	-1.52283746048362e-16	0	0	0	0	0	0	0	0	0
0.275	25.6831436157227	539.786743164062	12.5580787658692	0.191615585989698	1.35313325722216e-17	0.152096373434532	0	-2.43257847420736	-1.4895247210564e-16	0	0	0	0	0	0	0	0	0
0.276	25.2784557342529	539.528015136719	12.6716842651368	0.191513745968204	1.35785921511407e-17	0.152681219773797	0	-2.46722397253054	-1.51073897036957e-16	0	0	0	0	0	0	0	0	0
0.277	25.3333187103271	539.26806640625	12.6728277206421	0.191412244162995	1.36189294352586e-17	0.153379115766333	0	-2.55929019504795	-1.56711327272734e-16	0	0	0	0	0	0	0	0	0
0.278	24.925968170166	539.007934570312	12.413239479065	0.191309657590285	1.36637765879632e-17	0.15400336001553	0	-2.58883002440962	-1.5852012014649e-16	0	0	0	0	0	0	0	0	0
0.279	25.0683250427246	538.146118164062	12.4325151443482	0.191291655046131	1.37106781274245e-17	0.154594053582878	0	-2.63220958735959	-1.61176352292245e-16	0	0	0	0	0	0	0	0	0
0.28	24.6424427032471	537.370971679688	12.6543827056885	0.191200537831072	1.37635629588335e-17	0.155087032577308	0	-2.66983363842537	-1.63480160977678e-16	0	0	0	0	0	0	0	0	0
0.281	24.5375423431396	537.80078125	11.9314260482788	0.191317849502866	1.38031548918445e-17	0.155797101077174	0	-2.64190375293943	-1.61769948734633e-16	0	0	0	0	0	0	0	0	0
0.282	24.3502159118652	537.801330566406	12.154507637024	0.191325807673367	1.38564420239822e-17	0.156283510002112	0	-2.75711880791226	-1.68824836148936e-16	0	0	0	0	0	0	0	0	0
0.283	24.3799839019775	538.230895996094	11.9368162155152	0.1912218373096	1.38978638940462e-17	0.156963693361964	0	-2.73835429956219	-1.67675841394511e-16	0	0	0	0	0	0	0	0	0
0.284	23.9763374328613	537.281311035156	11.829252243042	0.191082249466143	1.39391508045626e-17	0.157646080778491	0	-2.79574370113619	-1.71189928741641e-16	0	0	0	0	0	0	0	0	0
0.285	24.0075073242188	537.108825683594	11.852336883545	0.19111102590043	1.39875437796923e-17	0.158212417352959	0	-2.90630492386141	-1.77959851117653e-16	0	0	0	0	0	0	0	0	0
0.286	23.950231552124	536.76318359375	11.7650375366211	0.190992713275288	1.40381450427279e-17	0.158742689849076	0	-2.90911354951757	-3.81611063693036e-15	0	0	0	0	0	0	0	0	0
0.287	23.6723937988281	536.678344726562	11.5032072067261	0.191218251492812	1.40902748286591e-17	0.159247999671926	0	-2.95287081707722	-1.80811189721462e-16	0	0	0	0	0	0	0	0	0
0.288	23.5511493682861	536.58984375	11.4623241424561	0.19097222010905	1.41327950476268e-17	0.159910245632938	0	-2.98725139304811	-1.82916392837242e-16	0	0	0	0	0	0	0	0	0
0.289	23.4236888885498	537.62255859375	11.2486467361451	0.190905806679729	1.41843040532582e-17	0.160425693567451	0	-3.03640961499121	-1.85926465794962e-16	0	0	0	0	0	0	0	0	0
0.29	23.0794258117676	537.880676269531	10.989764213562	0.190956980738033	1.42350875063093e-17	0.160952990674816	0	-3.09986504371634	3.44816681691291e-15	0	0	0	0	0	0	0	0	0
